<?xml version="1.0" ?><svg id="catorange" viewBox="0 0 64 64" xmlns="http://www.w3.org/2000/svg"><defs><style>.cls-1{fill:#ffe5a3;}.cls-1,.cls-3,.cls-4{stroke:#4d4d4d;stroke-linecap:round;stroke-linejoin:round;stroke-width:2px;}.cls-2{fill:#f5a2a2;}.cls-3{fill:none;}.cls-4{fill:#f57ca2;}</style></defs><title/><path class="cls-1" d="M50.4468,6.0043C46.4887,6.3183,38,15.0516,38,15.0516L52.7573,30s3.9778-4.7932,3.1221-13.68C55.4159,11.506,52.7454,5.8219,50.4468,6.0043Z"/><path class="cls-2" d="M41,19.3135a50.217,50.217,0,0,1,6.6233-5.4257,1.2246,1.2246,0,0,1,1.6775.3113,18.1678,18.1678,0,0,1,2.0149,6.6667A20.6,20.6,0,0,1,50.5642,29Z"/><path class="cls-1" d="M13.5532,6.0043C17.5113,6.3183,26,15.0516,26,15.0516L11.2427,30S7.2649,25.2068,8.1206,16.32C8.5841,11.506,11.2546,5.8219,13.5532,6.0043Z"/><path class="cls-2" d="M23,19.3135a50.217,50.217,0,0,0-6.6233-5.4257,1.2246,1.2246,0,0,0-1.6775.3113,18.1678,18.1678,0,0,0-2.0149,6.6667A20.6,20.6,0,0,0,13.4358,29Z"/><path class="cls-1" d="M32,14C13.7246,14,7,28.1029,7,40.8293,7,49.4012,16.1319,58,32,58s25-8.5988,25-17.1707C57,28.1029,50.2754,14,32,14Z"/><path class="cls-3" d="M40,37a4,4,0,0,1,8,0"/><path class="cls-3" d="M24,37a4,4,0,0,0-8,0"/><ellipse class="cls-2" cx="45" cy="44.5" rx="3" ry="1.5"/><ellipse class="cls-2" cx="19" cy="44.5" rx="3" ry="1.5"/><line class="cls-3" x1="53" x2="60" y1="42" y2="41"/><line class="cls-3" x1="53" x2="60" y1="46" y2="47"/><line class="cls-3" x1="11" x2="4" y1="42" y2="41"/><line class="cls-3" x1="11" x2="4" y1="46" y2="47"/><path class="cls-4" d="M35,41.479A3.2737,3.2737,0,0,1,32,44a3.2738,3.2738,0,0,1-3-2.521C29,40.6436,30.3432,40,32,40S35,40.6436,35,41.479Z"/><path class="cls-3" d="M36,48.5a4,4,0,0,1-4-4"/><path class="cls-3" d="M32,44.5a4,4,0,0,1-4,4"/><line class="cls-3" x1="32" x2="32" y1="14" y2="23"/><line class="cls-3" x1="39" x2="39" y1="15" y2="21"/><line class="cls-3" x1="25" x2="25" y1="15" y2="21"/></svg>