<?xml version="1.0" encoding="utf-8"?>
<!-- Generator: Adobe Illustrator 25.2.1, SVG Export Plug-In . SVG Version: 6.00 Build 0)  -->
<svg version="1.1" id="Cute_cat_logo" xmlns="http://www.w3.org/2000/svg" xmlns:xlink="http://www.w3.org/1999/xlink" x="0px"
	 y="0px" viewBox="0 0 128 128" style="enable-background:new 0 0 128 128;" xml:space="preserve">
<style type="text/css">
	.st0{fill:#A29490;}
	.st1{fill:none;stroke:#795956;stroke-width:4;stroke-linecap:round;stroke-linejoin:round;stroke-miterlimit:10;}
	.st2{fill:#C1B6B3;}
	.st3{fill:#FBC9C4;}
	.st4{fill:#795956;}
	.st5{fill:#FFFFFF;}
</style>
<g>
	<path class="st0" d="M107.9,7.9c-7.1,0.5-22.2,15.5-22.2,15.5L112,49.2c0,0,7.1-8.2,5.6-23.5C116.8,17.4,112,7.6,107.9,7.9
		L107.9,7.9z"/>
	<path class="st1" d="M107.9,7.9c-7.1,0.5-22.2,15.5-22.2,15.5L112,49.2c0,0,7.1-8.2,5.6-23.5C116.8,17.4,112,7.6,107.9,7.9
		L107.9,7.9z"/>
	<path class="st2" d="M20,7.9c7.1,0.5,22.2,15.5,22.2,15.5L15.9,49.2c0,0-7.1-8.2-5.6-23.5C11.2,17.4,15.9,7.6,20,7.9L20,7.9z"/>
	<path class="st3" d="M22.7,18.5c3.4,0.3,10.8,7.5,10.8,7.5L20.7,38.5c0,0-3.5-4-2.7-11.4C18.3,23.1,20.7,18.4,22.7,18.5L22.7,18.5z
		"/>
	<path class="st3" d="M104.2,18.5c-3.4,0.3-10.8,7.5-10.8,7.5l12.8,12.5c0,0,3.5-4,2.7-11.4C108.5,23.1,106.2,18.4,104.2,18.5
		L104.2,18.5z"/>
	<path class="st1" d="M20,7.9c7.1,0.5,22.2,15.5,22.2,15.5L15.9,49.2c0,0-7.1-8.2-5.6-23.5C11.2,17.4,15.9,7.6,20,7.9L20,7.9z"/>
	<path class="st2" d="M64,116.6c38.1-0.7,50.3-22.8,50.3-22.8c9.7,0.8,0.6-7.1,3.6-8.3c10.7,5.4,4.1-5.1,4.1-5.1
		c-2.4-4.8,3-14-10.6-37.8S73,18.4,64,18.4s-33.6,0.3-47.3,24.1s-8.3,33-10.6,37.8c0,0-6.6,10.4,4.1,5.1c3,1.2-6.1,9.2,3.6,8.3
		C13.7,93.7,25.9,115.8,64,116.6z"/>
	<path class="st3" d="M97.4,85.6c0,4.2-12.7,4.2-12.7,0S97.4,81.4,97.4,85.6"/>
	<path class="st3" d="M42.2,85.6c0,4.2-12.7,4.2-12.7,0S42.2,81.4,42.2,85.6"/>
	<path class="st1" d="M73.9,88.1c0,0-1,3.9-5.3,3.9S64,85.6,64,85.6S63.5,92,59.3,92S54,88.1,54,88.1"/>
	<path class="st4" d="M64.1,85.6c1,0,5.3-0.8,5.5-4c0.2-3.2-4.2-3.8-5.5-3.8c-1.4,0-5.7,0.6-5.5,3.8c0.2,3.2,4.5,4,5.5,4H64.1z"/>
	<g>
		<g>
			
				<ellipse transform="matrix(9.150353e-02 -0.9958 0.9958 9.150353e-02 -28.7933 101.8826)" class="st5" cx="41.4" cy="66.7" rx="12.7" ry="11.9"/>
			
				<ellipse transform="matrix(9.150353e-02 -0.9958 0.9958 9.150353e-02 -28.1883 101.1744)" class="st4" cx="41.4" cy="66" rx="10.4" ry="9.8"/>
			
				<ellipse transform="matrix(0.9958 -9.150353e-02 9.150353e-02 0.9958 -5.3751 3.798)" class="st5" cx="38.7" cy="60.5" rx="4.7" ry="5"/>
			
				<ellipse transform="matrix(0.9958 -9.150353e-02 9.150353e-02 0.9958 -6.2737 4.3562)" class="st5" cx="44.4" cy="70.6" rx="2.9" ry="3.1"/>
		</g>
	</g>
	<g>
		<g>
			
				<ellipse transform="matrix(0.9958 -9.150353e-02 9.150353e-02 0.9958 -5.7423 8.1969)" class="st5" cx="86.5" cy="66.7" rx="11.9" ry="12.7"/>
			
				<ellipse transform="matrix(0.9958 -9.150353e-02 9.150353e-02 0.9958 -5.6792 8.2019)" class="st4" cx="86.6" cy="66" rx="9.8" ry="10.4"/>
			
				<ellipse transform="matrix(0.9958 -9.150353e-02 9.150353e-02 0.9958 -5.186 7.9223)" class="st5" cx="83.8" cy="60.5" rx="4.7" ry="5"/>
			
				<ellipse transform="matrix(0.9958 -9.150353e-02 9.150353e-02 0.9958 -6.0846 8.4805)" class="st5" cx="89.4" cy="70.6" rx="2.9" ry="3.1"/>
		</g>
	</g>
	<g>
		<g>
			<path class="st0" d="M90,44.8c10.1,7.4,20.1,8,26.2,7.4c-1.3-2.9-2.9-6.1-4.9-9.6c-9.2-16-23.3-21.4-34.3-23.2
				C77,25.3,78.7,36.5,90,44.8z"/>
		</g>
	</g>
	<path class="st1" d="M64,116.6c38.1-0.7,50.3-22.8,50.3-22.8c9.7,0.8,0.6-7.1,3.6-8.3c10.7,5.4,4.1-5.1,4.1-5.1
		c-2.4-4.8,3-14-10.6-37.8S73,18.4,64,18.4s-33.6,0.3-47.3,24.1s-8.3,33-10.6,37.8c0,0-6.6,10.4,4.1,5.1c3,1.2-6.1,9.2,3.6,8.3
		C13.7,93.7,25.9,115.8,64,116.6z"/>
	<line class="st1" x1="25.7" y1="79.4" x2="16.7" y2="77.7"/>
	<line class="st1" x1="25.5" y1="88.8" x2="16.3" y2="89.4"/>
	<line class="st1" x1="102.3" y1="79.4" x2="111.3" y2="77.7"/>
	<line class="st1" x1="102.5" y1="88.8" x2="111.7" y2="89.4"/>
</g>
</svg>
